<?xml version="1.0" encoding="UTF-8"?>
<svg id="Camada_2" data-name="Camada 2" xmlns="http://www.w3.org/2000/svg" viewBox="0 0 100 89.61">
  <defs>
    <style>
      .cls-1 {
        fill: #e04e86;
      }
    </style>
  </defs>
  <g id="Camada_1-2" data-name="Camada 1">
    <g>
      <path class="cls-1" d="M52.71,87.24L1.87,29.01,18.84,1.9l61.96-.29,17.36,26.91-45.45,58.72ZM4.29,28.82l48.32,55.34,43.15-55.75L79.74,3.57l-59.81.28L4.29,28.82Z"/>
      <path class="cls-1" d="M99.3,28.57l-46.55,60.13L.71,29.1,18.33.98l62.98-.3,17.99,27.89ZM3.02,28.92l49.65,56.86,44.36-57.31L80.3,2.54l-60.94.29L3.02,28.92ZM96.9,28.47l-44.24,57.16L3.14,28.91,19.41,2.93l60.83-.29,16.66,25.82ZM5.44,28.73l47.13,53.98,42.06-54.34-15.39-23.87-58.8.28L5.44,28.73Z"/>
      <path class="cls-1" d="M52.73,88.15L1.15,29.07,18.52,1.33l62.59-.3,17.75,27.52-46.13,59.6ZM2.58,28.95l50.1,57.38,44.78-57.85L80.49,2.19l-61.33.29L2.58,28.95ZM52.64,85.07L3.58,28.87,19.61,3.28l60.45-.29,16.42,25.45-.25.32-43.58,56.3ZM5.01,28.76l47.58,54.5,42.47-54.87-15.63-24.24-59.18.28L5.01,28.76Z"/>
      <path class="cls-1" d="M100,28.6l-47.22,61.01L0,29.16,18.01.41,81.62.1l18.38,28.49ZM6.16,28.67l46.39,53.13,41.38-53.46-15-23.26-58.16.28L6.16,28.67Z"/>
      <rect class="cls-1" x="3.08" y="27.71" width="93.89" height="1.96" transform="translate(-.14 .24) rotate(-.27)"/>
      <path class="cls-1" d="M97.9,30.37l-95.74.45-.02-3.81,95.74-.45.02,3.81ZM4.01,28.96l92.03-.44v-.1l-92.03.44v.1Z"/>
      <path class="cls-1" d="M97.55,30.02l-95.04.45v-3.11s95.02-.45,95.02-.45v3.11ZM3.66,29.31l92.73-.44v-.81s-92.74.44-92.74.44v.81Z"/>
      <rect class="cls-1" x="1.58" y="26.21" width="96.89" height="4.96" transform="translate(-.14 .24) rotate(-.27)"/>
      <rect class="cls-1" x="35.05" y="-.34" width="1.96" height="89.26" transform="translate(-13.92 16.62) rotate(-21.89)"/>
      <path class="cls-1" d="M54.78,85.85l-3.54,1.42L17.27,2.73l3.54-1.42,33.97,84.54ZM52.27,84.86l.09-.04L19.78,3.72l-.09.04,32.59,81.1Z"/>
      <path class="cls-1" d="M51.44,86.81l-.21-.53L17.73,2.93l2.88-1.16,33.71,83.89-2.88,1.16ZM19.23,3.56l32.85,81.75.75-.3L19.97,3.26l-.75.3Z"/>
      <rect class="cls-1" x="33.54" y="-1.84" width="4.96" height="92.26" transform="translate(-13.92 16.64) rotate(-21.9)"/>
      <rect class="cls-1" x="22.68" y="43.17" width="87.58" height="1.96" transform="translate(3.61 93.29) rotate(-71.61)"/>
      <path class="cls-1" d="M82.37,2.31l-27.9,83.99-.29.88-3.62-1.2L78.76,1.11l3.62,1.2ZM53,84.84L80.03,3.49l-.1-.03-27.03,81.35.1.03Z"/>
      <path class="cls-1" d="M53.96,86.74l-2.95-.98L78.98,1.55l2.95.98-27.97,84.2ZM52.46,85.03l.76.25L80.47,3.26l-.76-.25-27.25,82.02Z"/>
      <polygon class="cls-1" points="78.39 .38 78.1 1.26 49.84 86.34 54.54 87.91 54.84 87.03 83.1 1.95 78.39 .38"/>
      <rect class="cls-1" x="23.52" y="14.78" width="33.34" height="1.96" transform="translate(2.81 37.35) rotate(-51.41)"/>
      <path class="cls-1" d="M52.66,3.2l-21.95,27.51-2.98-2.38L49.68.82l2.98,2.38ZM30.41,28.09L50.05,3.49l-.08-.06-19.64,24.61.08.06Z"/>
      <path class="cls-1" d="M30.65,30.21l-2.43-1.94L49.73,1.31l2.43,1.94-21.51,26.95ZM29.84,28.09l.63.5L50.55,3.43l-.63-.5-20.08,25.16Z"/>
      <rect class="cls-1" x="22.02" y="13.28" width="36.34" height="4.96" transform="translate(2.8 37.34) rotate(-51.41)"/>
      <rect class="cls-1" x="60.13" y="-1.01" width="1.96" height="33.34" transform="translate(3.83 42.1) rotate(-39.15)"/>
      <path class="cls-1" d="M73.7,28.1l-2.95,2.41L48.53,3.22l2.96-2.41,22.22,27.29ZM71.01,27.9l.08-.06L51.21,3.42l-.08.06,19.88,24.42Z"/>
      <path class="cls-1" d="M70.8,30.02L49.02,3.27l2.41-1.96,21.77,26.75-2.41,1.96ZM50.64,3.43l20.32,24.96.62-.51L51.27,2.92l-.62.51Z"/>
      <rect class="cls-1" x="58.63" y="-2.51" width="4.96" height="36.35" transform="translate(3.84 42.11) rotate(-39.16)"/>
    </g>
  </g>
</svg>