<?xml version="1.0" encoding="UTF-8"?><svg id="uuid-2ae25be2-8971-4d64-8394-2ec4f341a6c1" xmlns="http://www.w3.org/2000/svg" viewBox="0 0 1674.73 466.67"><g id="uuid-4a9ac53a-7149-4807-8b4e-3aa7db388d67"><rect x="1141.4" width="533.33" height="66.67" style="fill:#ffffff;"/><rect x="1141.4" y="200" width="533.33" height="66.67" style="fill:#ffffff;"/><rect x="1141.4" y="400" width="533.33" height="66.67" style="fill:#ffffff;"/><path d="M0,353.17V109.2h32.35l95.74,138.33,94.75-138.33h33.01v243.97h-48.86v-138.33l-70.98,102.01h-16.84l-70.98-102.01v138.33H0Z" style="fill:#ffffff;"/><path d="M309.99,353.17V109.2h165.4v45.56h-116.21v52.49h107.62v45.56h-107.62v54.8h116.21v45.56h-165.4Z" style="fill:#ffffff;"/><path d="M680.07,109.2h48.2v243.97h-33.34l-126.44-149.55v149.55h-48.2V109.2h31.03l128.76,150.87V109.2Z" style="fill:#ffffff;"/><path d="M779.76,109.2h49.19v151.53c0,32.68,17.5,49.19,46.22,49.19s45.56-17.5,45.56-49.19V109.2h49.52v154.83c0,30.7-8.91,53.81-27.07,69.66-17.83,15.85-40.61,23.77-68.01,23.77s-50.18-7.92-68.34-23.77c-18.16-15.85-27.07-38.96-27.07-69.66V109.2Z" style="fill:#ffffff;"/></g></svg>