<?xml version="1.0" encoding="UTF-8"?><svg id="uuid-ce3ae036-a766-4e55-bc69-04f2951281c9" xmlns="http://www.w3.org/2000/svg" viewBox="0 0 1112.46 250"><g id="uuid-df1dcfeb-f8b6-4e92-9a4f-0757074050f5"><path d="M320,250H30c-16.6,0-30-13.4-30-30V30C0,13.4,13.4,0,30,0h290c16.6,0,30,13.4,30,30v190c0,16.6-13.4,30-30,30Z" style="fill:#f8f8f8; stroke-width:0px;"/><path d="M320,10c11,0,20,9,20,20v190c0,11-9,20-20,20H30c-11,0-20-9-20-20V30c0-11,9-20,20-20h290M320,0H30C13.4,0,0,13.4,0,30v190c0,16.6,13.4,30,30,30h290c16.6,0,30-13.4,30-30V30c0-16.6-13.4-30-30-30Z" style="fill:#e7e7e7; stroke-width:0px;"/><path d="M275.8,125.01c0,34.51-27.95,62.46-62.34,62.46s-62.34-27.95-62.34-62.46,27.95-62.47,62.34-62.47,62.34,27.95,62.34,62.47Z" style="fill:#f79f1a; stroke-width:0px;"/><path d="M198.88,125.01c0,34.51-27.95,62.46-62.34,62.46s-62.34-27.95-62.34-62.46,27.95-62.47,62.34-62.47,62.34,27.95,62.34,62.47h0Z" style="fill:#ea001b; stroke-width:0px;"/><path d="M174.94,75.8c-14.58,11.42-23.82,29.17-23.82,49.22s9.36,37.79,23.82,49.22c14.58-11.42,23.82-29.17,23.82-49.22s-9.24-37.79-23.82-49.22h0Z" style="fill:#ff5f01; stroke-width:0px;"/><path d="M701.23,250h-290c-16.6,0-30-13.4-30-30V30c0-16.6,13.4-30,30-30h290c16.6,0,30,13.4,30,30v190c0,16.6-13.4,30-30,30Z" style="fill:#f8f8f8; stroke-width:0px;"/><path d="M701.23,10c11,0,20,9,20,20v190c0,11-9,20-20,20h-290c-11,0-20-9-20-20V30c0-11,9-20,20-20h290M701.23,0h-290c-16.6,0-30,13.4-30,30v190c0,16.6,13.4,30,30,30h290c16.6,0,30-13.4,30-30V30c0-16.6-13.4-30-30-30Z" style="fill:#e7e7e7; stroke-width:0px;"/><path d="M528.13,82.1l-18.4,85.4h22.2l18.4-85.4h-22.2ZM671.13,82.1h-18.9c-4.2,0-7.9,2.5-9.4,6.2l-33.4,79.2h23.3l4.6-12.8h28.5l2.7,12.8h20.6l-18-85.4h0ZM643.83,137.2l11.6-32,6.7,32h-18.3ZM495.23,82.1l-23.1,58.1-9.4-49.4c-1.2-5.6-5.4-8.8-10.3-8.8h-37.6l-.5,2.5c7.8,1.7,16.5,4.4,21.9,7.2,3.2,1.9,4.2,3.4,5.2,7.6l17.7,68.3h23.4l36.1-85.4h-23.4s0-.1,0-.1ZM579.53,105.9c0-3,3-6.4,9.4-7.1,3.2-.3,12-.7,21.9,3.9l3.9-18.2c-5.4-1.9-12.3-3.7-20.7-3.7-21.9,0-37.4,11.6-37.6,28.3-.2,12.3,11.1,19.2,19.4,23.3,8.6,4.2,11.6,6.9,11.5,10.6,0,5.7-6.9,8.3-13.3,8.4-11.1.2-17.7-3-22.8-5.4l-4,18.7c5.2,2.4,14.8,4.4,24.8,4.6,23.4,0,38.6-11.5,38.8-29.2-.2-22.9-31.5-24.3-31.3-34.2h0Z" style="fill:#0f2496; stroke-width:0px;"/><path d="M1078.53,5h-281.05c-16.06,0-29.02,12.9-29.02,28.8v182.4c0,15.9,12.97,28.8,29.02,28.8h280.95c16.06,0,29.02-12.9,29.02-28.8V33.8c.1-15.9-12.87-28.8-28.92-28.8Z" style="fill:#231f20; stroke-width:0px;"/><path d="M839.72,96.02c3.06-.96,6.25-1.44,9.46-1.44,14.44,0,26.48,9.62,29.25,22.4l20.46-3.92c-4.7-21.72-25.17-38.07-49.71-38.07-5.62,0-11.03.86-16.08,2.44l6.62,18.58Z" style="fill:#ffdc00; stroke-width:0px;"/><path d="M815.57,158.22l13.84-14.67c-6.18-5.13-10.07-12.62-10.07-20.97s3.89-15.83,10.07-20.96l-13.84-14.67c-10.49,8.72-17.1,21.45-17.1,35.63s6.62,26.92,17.12,35.64" style="fill:#1c99d5; stroke-width:0px;"/><path d="M878.42,128.2c-2.77,12.77-14.81,22.38-29.24,22.38-3.31,0-6.5-.51-9.47-1.44l-6.63,18.58c5.21,1.63,10.64,2.45,16.1,2.45,24.53,0,44.99-16.33,49.7-38.03,0,0-20.46-3.93-20.46-3.93Z" style="fill:#ee4123; stroke-width:0px;"/><path d="M967,141.32c-3.38,3.08-7.96,4.96-13.02,4.9-3.31-.05-6.56-.96-9.41-2.65l-6.77,10.12c4.64,2.75,10.11,4.38,16,4.46,8.58.12,16.41-3.04,22.09-8.27l-8.89-8.56h0ZM936.15,130.92c-.09-.68-.12-1.37-.11-2.06.16-9.45,8.45-16.98,18.51-16.83,5.48.07,10.34,2.42,13.63,6.06l-32.03,12.82ZM954.73,100.08c-17.08-.25-31.15,12.55-31.41,28.58-.1,6.01,1.75,11.63,5.01,16.3l56.07-22.48c-3.16-12.67-15.17-22.19-29.66-22.41h0ZM1001.98,87v56.07l10.37,4.03-4.91,11.06-10.26-4c-2.3-.94-3.87-2.37-5.05-3.98-1.14-1.65-1.98-3.91-1.98-6.95v-56.22h11.83ZM1039.37,112.91c1.87-.58,3.82-.88,5.77-.88,8.81,0,16.16,5.87,17.85,13.67l12.49-2.39c-2.87-13.26-15.36-23.24-30.34-23.24-3.43,0-6.73.53-9.81,1.49,0,0,4.04,11.34,4.04,11.34ZM1024.63,150.87l8.44-8.95c-3.77-3.13-6.14-7.7-6.14-12.8s2.37-9.66,6.14-12.79l-8.45-8.95c-6.4,5.32-10.44,13.09-10.44,21.75s4.04,16.43,10.45,21.75M1062.99,132.54c-1.69,7.79-9.04,13.66-17.85,13.66-2.02,0-3.96-.31-5.78-.88l-4.05,11.34c3.18,1,6.49,1.5,9.83,1.5,14.97,0,27.46-9.97,30.34-23.21l-12.49-2.4h0Z" style="fill:#fefefe; stroke-width:0px;"/><path d="M1082.46,10c11,0,20,9,20,20v190c0,11-9,20-20,20h-290c-11,0-20-9-20-20V30c0-11,9-20,20-20h290ZM1082.46,0h-290c-16.6,0-30,13.4-30,30v190c0,16.6,13.4,30,30,30h290c16.6,0,30-13.4,30-30V30c0-16.6-13.4-30-30-30Z" style="fill:#e7e7e7; stroke-width:0px;"/></g></svg>